<svg width="139" height="227" viewBox="0 0 139 227" fill="none" xmlns="http://www.w3.org/2000/svg">
<g filter="url(#filter0_dd_530_90)">
<g clip-path="url(#clip0_530_90)">
<path d="M89.3036 45.8384C86.1144 49.7099 80.5419 57.633 82.5947 61.1508C84.6297 64.6284 87.6894 63.922 87.6894 63.922C87.6894 63.922 82.8586 70.5332 85.7258 74.8263C89.2685 80.1338 94.3433 77.4416 94.3433 77.4416C94.3433 77.4416 92.0418 82.7069 97.596 85.8462C102.091 88.3877 108.331 83.0854 108.331 83.0854C108.331 83.0854 107.85 86.1933 111.475 87.9601C115.135 89.7461 122.617 83.6062 126.24 80.1392C130.238 76.3116 176.416 27.8477 176.416 27.8477L136.736 -8.98898C136.736 -8.98898 92.8236 41.5672 89.3036 45.8384Z" fill="#DEB180"/>
<path d="M104.757 64.9335C110.61 70.366 120.147 70.903 119.927 64.9629C119.706 59.0229 114.172 61.3416 110.752 58.1658C107.525 55.1563 108.824 50.3538 104.338 49.6306C99.8531 48.9074 98.126 58.7763 104.757 64.9335Z" fill="#2D2B2C"/>
<path d="M113.081 84.6219C114.795 85.957 116.777 84.6112 118.191 82.6995C119.605 80.7878 119.683 78.7062 118.484 77.8095C117.285 76.9128 114.896 77.7048 113.274 79.6387C111.653 81.5727 111.688 83.5386 113.081 84.6219Z" fill="#2D2B2C"/>
<path d="M104.284 75.7325C103.084 74.8345 100.696 75.6278 99.0727 77.5631C97.4495 79.4985 97.4825 81.4645 98.8797 82.5463C100.594 83.8814 102.575 82.5356 103.991 80.6225C105.406 78.7094 105.482 76.6292 104.284 75.7325Z" fill="#2D2B2C"/>
<path d="M94.6974 66.8319C93.4987 65.9352 91.1083 66.7286 89.4878 68.6638C87.8673 70.5991 87.8976 72.5652 89.2948 73.647C91.0073 74.9807 92.9903 73.6363 94.4045 71.7246C95.8188 69.8129 95.8948 67.73 94.6974 66.8319Z" fill="#2D2B2C"/>
<path d="M86.8286 55.0832C85.211 57.0238 85.2384 58.9846 86.6356 60.0664C88.3481 61.4001 90.3311 60.0557 91.7467 58.1426C93.1623 56.2295 93.2369 54.148 92.0383 53.2513C90.8396 52.3546 88.4434 53.14 86.8286 55.0832Z" fill="#2D2B2C"/>
<g opacity="0.2">
<path opacity="0.2" d="M110.66 66.3418C114.541 67.7019 117.544 66.7509 117.478 64.9809C117.413 63.2108 113.387 64.6962 111.217 63.4411C109.18 62.2604 106.296 59.9051 105.35 60.558C103.766 61.6501 106.47 64.8727 110.66 66.3418Z" fill="white"/>
<path opacity="0.2" d="M114.174 83.4201C114.859 84.1277 115.96 83.2432 116.654 82.5896C117.229 82.0491 117.977 81.1906 117.512 80.6197C117.047 80.0488 116.146 80.8364 115.496 81.2283C114.847 81.6202 113.615 82.8416 114.174 83.4201Z" fill="white"/>
<path opacity="0.2" d="M102.967 78.8755C102.502 78.3019 101.601 79.0922 100.95 79.4855C100.299 79.8788 99.0706 81.0974 99.6288 81.6759C100.313 82.3849 101.415 81.499 102.109 80.8454C102.687 80.3021 103.434 79.445 102.967 78.8755Z" fill="white"/>
<path opacity="0.2" d="M90.1014 72.6094C90.7854 73.3184 91.888 72.4325 92.5818 71.7789C93.1556 71.2398 93.9063 70.3812 93.4382 69.8104C92.9702 69.2396 92.0739 70.0257 91.4228 70.419C90.7717 70.8123 89.5418 72.0323 90.1014 72.6094Z" fill="white"/>
<path opacity="0.2" d="M87.2605 58.7193C87.9446 59.4283 89.0471 58.5424 89.7409 57.8887C90.3148 57.3496 91.0655 56.491 90.5987 55.9189C90.132 55.3467 89.2331 56.1355 88.582 56.5288C87.9309 56.9221 86.701 58.1422 87.2605 58.7193Z" fill="white"/>
</g>
<path d="M139.573 -1.30863C137.826 -2.95095 135.973 -4.47665 134.026 -5.87585C132.071 -3.62099 129.184 -0.296892 125.801 3.60176C132.111 9.25665 140.475 14.7321 142.375 15.8358C150.484 20.5491 159.523 23.6646 166.473 30.1226C167.71 31.2768 169.081 32.6361 170.409 34.1413C172.433 32.0189 174.053 30.3194 175.099 29.2229C173.218 28.2139 171.323 27.1712 169.465 25.9856C161.648 21.002 155.379 13.3758 148.587 7.05797L139.573 -1.30863Z" fill="#2D2B2C"/>
<path d="M116.118 14.771C117.531 18.303 120.906 20.8156 123.951 23.3928C134.062 31.9894 145.742 40.6755 154.354 50.9552C156.771 48.4281 159.143 45.9435 161.396 43.5842C159.005 41.2566 157.112 39.1785 156.476 38.4692C147.494 28.6234 137.055 10.7925 122.766 7.10315C120.638 9.5575 118.398 12.1397 116.118 14.771Z" fill="#2D2B2C"/>
<path d="M106.999 25.2948C103.981 28.7815 101.096 32.1151 98.5531 35.0594C100.387 37.9246 102.504 40.5985 104.873 43.0407C110.788 49.118 117.572 54.2387 124.392 59.2218C128.774 62.4266 133.588 65.0046 138.277 67.7368C140.716 65.2008 143.372 62.4283 146.115 59.5669C136.433 51.789 127.991 42.2703 118.515 34.2604C117.173 33.1167 112.119 28.7434 106.999 25.2948Z" fill="#2D2B2C"/>
</g>
<g clip-path="url(#clip1_530_90)">
<path d="M74.9958 104.885C74.9958 104.885 69.3507 99.2252 68.0698 100.125C66.4724 101.239 71.2564 108.111 71.2564 108.111L74.9958 104.885Z" fill="#7A796E"/>
<path d="M59.5426 121.532C59.5426 121.532 52.0775 118.705 51.2736 120.058C50.2756 121.733 57.4705 126.012 57.4705 126.012L59.5426 121.532Z" fill="#7A796E"/>
<path d="M78.1977 169.664C78.1977 169.664 73.1914 175.882 71.8155 175.13C70.1078 174.19 74.1472 166.851 74.1472 166.851L78.1977 169.664Z" fill="#7A796E"/>
<path d="M61.0775 154.746C61.0775 154.746 53.9537 158.348 53.0097 157.088C51.8413 155.529 58.5424 150.511 58.5424 150.511L61.0775 154.746Z" fill="#7A796E"/>
<path d="M75.7612 103.005C63.5482 107.02 69.0871 118.187 69.0871 118.187C69.0871 118.187 57.1392 115.776 55.6989 124.781C54.542 132.019 59.7427 136.969 61.3787 137.863C59.9465 138.785 54.8377 145.268 57.6308 152.316C61.0552 160.955 70.8298 156.787 70.8298 156.787C70.8298 156.787 66.4213 168.454 78.9683 171.236C89.0386 173.474 89.7389 158.726 94.1842 157.94C98.6295 157.153 157.206 160.674 157.206 160.674L154.656 105.78C154.656 105.78 96.724 115.072 92.2222 114.73C87.7204 114.387 85.5688 99.7833 75.7612 103.005Z" fill="#FCF0E3"/>
<path d="M75.6421 136.925C75.9074 145.021 82.3204 152.274 86.4347 147.875C90.5491 143.475 84.937 141.143 84.7818 136.407C84.6352 131.933 89.0246 129.444 86.3454 125.693C83.6662 121.941 75.3416 127.756 75.6421 136.925Z" fill="#1A1A1A"/>
<path d="M76.4984 161.541C75.2217 163.758 75.588 165.713 77.1696 166.553C79.1124 167.585 80.8532 165.907 81.9348 163.747C83.0164 161.587 82.7315 159.499 81.383 158.809C80.0344 158.119 77.7766 159.313 76.4984 161.541Z" fill="#1A1A1A"/>
<path d="M69.2142 145.269C68.2609 144.088 65.7144 144.265 63.6441 145.768C61.5739 147.272 61.1128 149.206 62.2139 150.617C63.5675 152.354 65.8473 151.535 67.708 150.004C69.5687 148.472 70.1654 146.451 69.2142 145.269Z" fill="#1A1A1A"/>
<path d="M74.7575 108.902C73.3366 109.99 73.2984 111.979 74.9231 113.957C76.5478 115.935 78.9672 116.754 80.1853 115.845C81.4034 114.936 81.3366 112.837 79.9213 110.883C78.506 108.93 76.5055 107.564 74.7575 108.902Z" fill="#1A1A1A"/>
<path d="M61.0634 126.466C60.2102 128.041 60.98 129.873 63.2734 131.014C65.5668 132.156 68.1034 131.911 68.8478 130.588C69.5922 129.265 68.6721 127.369 66.5855 126.17C64.4988 124.971 62.1154 124.534 61.0634 126.466Z" fill="#1A1A1A"/>
<path d="M97.6606 153.828C99.1671 153.867 100.676 153.901 102.181 153.963C103.337 154.013 104.662 153.987 105.766 154.307C106.375 154.482 107.062 154.053 107.205 153.58C107.381 153.02 106.944 152.587 106.336 152.411C105.104 152.061 103.617 152.088 102.324 152.029C100.75 151.956 99.1717 151.924 97.5968 151.883C96.063 151.846 96.1365 153.79 97.6608 153.834L97.6606 153.828Z" fill="#2D2B2C"/>
<path d="M104.025 149.597C105.472 149.389 106.92 149.179 108.375 149.009C109.463 148.879 111.094 148.677 111.93 148.783C113.434 148.976 114.019 147.08 112.5 146.887C111.194 146.719 109.834 146.893 108.533 147.039C107.002 147.208 105.483 147.434 103.961 147.652C103.32 147.743 102.786 148.081 102.805 148.666C102.82 149.144 103.382 149.692 104.025 149.602L104.025 149.597Z" fill="#2D2B2C"/>
<path d="M100.003 143.075C100.951 142.862 101.871 142.564 102.794 142.288C103.283 142.141 103.775 141.996 104.268 141.861C104.461 141.804 104.672 141.752 104.877 141.704C104.96 141.684 105.046 141.665 105.129 141.649C105.481 141.575 104.92 141.656 105.191 141.647C106.717 141.544 106.659 139.599 105.127 139.696C104.223 139.757 103.334 140.067 102.488 140.318C101.436 140.63 100.39 140.972 99.3101 141.221C97.8254 141.553 98.5199 143.407 100.003 143.075Z" fill="#2D2B2C"/>
<path d="M97.4261 132.163C100.71 132.166 103.963 131.7 107.24 131.581C108.773 131.531 108.709 129.58 107.176 129.631C103.899 129.75 100.646 130.216 97.3622 130.212C95.8275 130.21 95.8971 132.154 97.4261 132.163Z" fill="#2D2B2C"/>
<path d="M111.033 135.999C113.3 135.794 115.613 135.849 117.837 135.352C119.319 135.017 118.625 133.163 117.142 133.497C115.141 133.953 113.021 133.868 110.974 134.054C109.457 134.192 109.511 136.137 111.038 136.005L111.033 135.999Z" fill="#2D2B2C"/>
<path d="M113.704 126.563C115.123 126.019 116.775 125.85 118.317 125.897C119.859 125.944 119.774 124 118.253 123.946C116.273 123.883 114.301 124.213 112.449 124.917C112.324 124.967 112.212 125.045 112.121 125.146C112.031 125.246 111.965 125.366 111.928 125.496C111.891 125.625 111.885 125.762 111.909 125.895C111.933 126.028 111.988 126.153 112.068 126.262C112.441 126.749 113.114 126.784 113.704 126.556L113.704 126.563Z" fill="#2D2B2C"/>
<path d="M97.7909 123.939C99.807 123.58 101.519 122.34 103.604 122.227C105.132 122.142 105.072 120.197 103.54 120.276C101.181 120.404 99.3527 121.675 97.0962 122.079C95.5958 122.347 96.2981 124.201 97.7907 123.933L97.7909 123.939Z" fill="#2D2B2C"/>
<path d="M116.312 118.016C119.14 117.257 122.114 117.045 124.986 116.433C126.475 116.119 125.776 114.259 124.291 114.579C121.421 115.185 118.445 115.403 115.619 116.16C114.16 116.552 114.847 118.408 116.312 118.016Z" fill="#2D2B2C"/>
<path d="M128.804 126.461C131.071 126.25 133.324 125.936 135.608 125.848C137.139 125.797 137.077 123.847 135.544 123.897C133.264 123.983 131.01 124.297 128.74 124.51C127.224 124.652 127.276 126.597 128.804 126.461Z" fill="#2D2B2C"/>
<path d="M115.875 143.367C117.885 143.428 119.892 143.489 121.904 143.429C123.437 143.379 123.374 141.44 121.84 141.479C119.828 141.544 117.822 141.477 115.811 141.416C114.279 141.371 114.354 143.315 115.875 143.367Z" fill="#2D2B2C"/>
<path d="M113.234 154.71C115.333 154.923 117.353 155.462 119.452 155.678C120.956 155.824 121.54 153.936 120.022 153.783C117.923 153.571 115.903 153.031 113.805 152.815C112.299 152.669 111.717 154.557 113.234 154.71Z" fill="#2D2B2C"/>
<path d="M122.927 150.412C125.357 150.2 127.788 149.991 130.198 149.655C130.839 149.565 131.374 149.226 131.355 148.64C131.339 148.162 130.777 147.616 130.134 147.704C127.724 148.041 125.293 148.253 122.863 148.462C121.344 148.593 121.398 150.541 122.927 150.412Z" fill="#2D2B2C"/>
<path d="M136.676 153.718C139.557 153.51 142.435 153.705 145.212 152.883C146.655 152.459 145.972 150.601 144.52 151.029C141.951 151.787 139.273 151.58 136.612 151.773C135.089 151.883 135.145 153.828 136.676 153.723L136.676 153.718Z" fill="#2D2B2C"/>
<path d="M132.238 144.13C134.744 144.024 137.156 143.445 139.487 142.689C140.907 142.227 140.228 140.368 138.792 140.835C136.659 141.528 134.472 142.088 132.174 142.185C130.643 142.249 130.705 144.186 132.238 144.136L132.238 144.13Z" fill="#2D2B2C"/>
<path d="M124.546 136.949C126.897 136.501 129.269 136.175 131.653 135.972C133.171 135.836 133.117 133.891 131.589 134.021C128.994 134.244 126.412 134.601 123.854 135.089C122.358 135.38 123.058 137.232 124.546 136.943L124.546 136.949Z" fill="#2D2B2C"/>
<path d="M135.614 131.005C137.702 130.341 140.463 130.221 142.587 130.776C144.045 131.16 144.601 129.259 143.159 128.881C140.685 128.232 137.357 128.376 134.922 129.151C133.496 129.606 134.175 131.464 135.614 131.005Z" fill="#2D2B2C"/>
<path d="M139.117 120.393C139.229 120.304 138.893 120.512 139.18 120.372C139.294 120.323 139.284 120.323 139.153 120.373C139.253 120.334 139.358 120.301 139.46 120.271C139.845 120.156 140.237 120.062 140.632 119.99C141.604 119.809 142.584 119.677 143.569 119.595C144.607 119.497 145.655 119.439 146.699 119.424C147.496 119.414 147.901 119.385 148.56 119.558C150.014 119.948 150.568 118.048 149.13 117.661C148.353 117.454 147.447 117.478 146.636 117.483C145.466 117.492 144.299 117.575 143.133 117.69C141.96 117.796 140.794 117.965 139.639 118.195C138.842 118.36 137.985 118.587 137.383 119.071C136.279 119.959 138.009 121.275 139.107 120.382L139.117 120.393Z" fill="#2D2B2C"/>
<path d="M128.167 120.098C128.979 119.306 130.308 118.979 131.363 118.458C132.683 117.808 131.431 116.167 130.108 116.818C128.858 117.445 127.412 117.836 126.443 118.778C125.473 119.72 127.173 121.068 128.167 120.098Z" fill="#2D2B2C"/>
<path d="M102.204 118.248C104.112 118.166 105.984 117.761 107.9 117.804C109.434 117.835 109.36 115.891 107.836 115.853C105.92 115.81 104.048 116.215 102.14 116.299C100.609 116.365 100.671 118.3 102.204 118.25L102.204 118.248Z" fill="#2D2B2C"/>
<g opacity="0.26">
<path opacity="0.26" d="M78.5811 142.408C80.3698 146.175 83.195 147.659 84.4195 146.347C85.6439 145.036 81.7073 143.198 81.0632 140.739C80.4591 138.429 80.1019 134.67 78.9542 134.453C77.0392 134.092 76.6501 138.341 78.5811 142.408Z" fill="#F08641"/>
<path opacity="0.26" d="M78.2743 165.992C79.0532 166.616 80.0527 165.58 80.6602 164.839C81.1684 164.223 81.8098 163.267 81.2702 162.749C80.7307 162.232 79.9182 163.141 79.3235 163.62C78.7289 164.098 77.6394 165.481 78.2743 165.992Z" fill="#F08641"/>
<path opacity="0.26" d="M63.0831 150.114C63.4585 151.039 64.835 150.619 65.7263 150.27C66.4694 149.978 67.4955 149.456 67.2751 148.741C67.0547 148.025 65.9 148.428 65.1514 148.552C64.4028 148.676 62.7756 149.359 63.0831 150.114Z" fill="#F08641"/>
<path opacity="0.26" d="M61.8221 127.545C61.2503 128.362 62.349 129.285 63.1259 129.846C63.773 130.313 64.7688 130.891 65.2493 130.319C65.7297 129.747 64.7712 129.001 64.2533 128.43C63.7355 127.859 62.2877 126.877 61.8221 127.545Z" fill="#F08641"/>
<path opacity="0.26" d="M74.9846 110.114C74.1954 110.725 74.9664 111.94 75.5414 112.706C76.0206 113.345 76.7971 114.194 77.4274 113.791C78.0576 113.388 77.364 112.391 77.0407 111.691C76.7175 110.99 75.6292 109.614 74.9846 110.114Z" fill="#F08641"/>
</g>
</g>
<g clip-path="url(#clip2_530_90)">
<path d="M12.1497 67.347C12.1497 67.347 5.83757 71.5668 6.43859 72.9359C7.18204 74.6325 14.4671 71.4254 14.4671 71.4254L12.1497 67.347Z" fill="#2D2B2C"/>
<path d="M24.8138 84.835C24.8138 84.835 20.8035 91.2814 21.9157 92.2815C23.2923 93.5195 28.6072 87.5925 28.6072 87.5925L24.8138 84.835Z" fill="#2D2B2C"/>
<path d="M73.0987 76.2844C73.0987 76.2844 77.976 82.1038 77.0166 83.249C75.829 84.6599 69.733 79.5501 69.733 79.5501L73.0987 76.2844Z" fill="#2D2B2C"/>
<path d="M56.0443 89.5249C56.0443 89.5249 58.0874 96.8359 56.7409 97.4733C55.0618 98.2761 51.6312 91.0904 51.6312 91.0904L56.0443 89.5249Z" fill="#2D2B2C"/>
<path d="M10.5397 66.2818C12.031 78.4177 23.4623 75.3057 23.4623 75.3057C23.4623 75.3057 19.0136 86.0131 27.1393 89.0144C33.6715 91.426 39.2413 87.4832 40.3751 86.122C40.9695 87.6277 46.0692 93.589 53.1537 92.2793C61.833 90.6758 59.7506 80.7852 59.7506 80.7852C59.7506 80.7852 69.8031 87.0485 74.713 75.8476C78.6529 66.8625 65.0409 63.4952 65.1285 59.2008C65.2161 54.9063 79.2879 0.897104 79.2879 0.897104L27.6699 -6.83009C27.6699 -6.83009 25.6541 48.9485 24.5076 53.0866C23.361 57.2246 9.34419 56.5421 10.5397 66.2818Z" fill="#FDBF12"/>
<path d="M42.1175 72.6466C49.7085 73.8891 57.6492 69.2407 54.3091 64.5905C50.9689 59.9404 48.8275 57.7766 44.3911 57.0513C40.1951 56.3643 37.6172 58.7819 33.6288 60.5911C29.6404 62.4004 33.5281 71.2362 42.1175 72.6466Z" fill="#2D2B2C"/>
<path d="M65.2162 76.3753C67.0485 77.977 68.9372 77.9938 70.0104 76.6735C71.3309 75.0488 70.0976 73.1115 68.2737 71.7092C66.4499 70.3069 64.4635 70.1846 63.5706 71.3172C62.6778 72.4497 63.3836 74.7755 65.2162 76.3753Z" fill="#2D2B2C"/>
<path d="M48.7144 80.1787C47.4455 80.8521 47.1328 83.2606 48.1529 85.4697C49.1729 87.6787 50.8914 88.4639 52.4086 87.6963C54.2756 86.752 53.9323 84.475 52.8477 82.4537C51.7632 80.4323 49.9908 79.5082 48.7144 80.1787Z" fill="#2D2B2C"/>
<path d="M15.8489 68.3108C16.6014 69.8378 18.4472 70.2318 20.5884 69.0887C22.7296 67.9457 23.9357 65.8284 23.3182 64.5238C22.7006 63.2192 20.7277 62.8945 18.6461 63.8571C16.5646 64.8197 14.924 66.4308 15.8489 68.3108Z" fill="#2D2B2C"/>
<path d="M29.695 84.3262C31.0035 85.4137 32.8541 85.0287 34.3389 83.1021C35.8237 81.1755 36.0648 78.7593 34.9699 77.8205C33.875 76.8816 31.939 77.3906 30.4319 79.1178C28.9249 80.845 28.0844 82.988 29.695 84.3262Z" fill="#2D2B2C"/>
<path d="M57.6614 33.4553C51.9306 34.2777 52.2035 43.2432 54.2478 46.8862C56.1465 50.2838 61.9801 52.837 66.4761 52.2016C67.5995 47.2003 69.3291 40.0893 71.1615 32.7408C69.2625 33.7181 67.3175 34.7757 65.2823 35.0297C62.5449 35.3797 60.1584 33.0965 57.6614 33.4553Z" fill="#2D2B2C"/>
<path d="M25.9709 32.966C31.4573 33.5637 36.0503 33.0238 41.1288 29.6531C46.3948 26.1583 51.4331 22.7939 57.1731 20.1092C61.4202 18.1286 63.4747 16.0843 64.2251 11.4903C64.824 7.80276 65.3059 3.01552 64.6004 -1.29545L27.6667 -6.82263C27.6667 -6.82263 26.8555 15.5105 25.9709 32.966Z" fill="#2D2B2C"/>
<g opacity="0.33">
<path opacity="0.33" d="M47.6452 71.1194C51.4842 70.1422 53.3981 67.7707 52.3917 66.3941C51.3852 65.0175 48.9554 68.3465 46.5459 68.4932C44.2828 68.6321 40.7139 68.275 40.3002 69.3052C39.6107 71.0267 43.4997 72.1711 47.6452 71.1194Z" fill="#DEB180"/>
<path opacity="0.33" d="M69.5627 75.745C70.2888 75.1359 69.5056 74.0113 68.9294 73.3034C68.4489 72.7163 67.6754 71.9425 67.0943 72.3492C66.5133 72.756 67.2101 73.6766 67.5447 74.3264C67.8793 74.9763 68.9711 76.2446 69.5627 75.745Z" fill="#DEB180"/>
<path opacity="0.33" d="M51.9707 87.0005C52.9001 86.8214 52.7675 85.4584 52.6016 84.5623C52.4665 83.8156 52.1686 82.7622 51.4594 82.8375C50.7502 82.9128 50.9167 84.0525 50.8926 84.7856C50.8684 85.5188 51.2084 87.1492 51.9707 87.0005Z" fill="#DEB180"/>
<path opacity="0.33" d="M30.7063 84.0226C31.3632 84.7001 32.4323 83.8623 33.0986 83.2314C33.651 82.7168 34.3748 81.8914 33.9292 81.3365C33.4836 80.7816 32.6136 81.5402 31.9855 81.9171C31.3574 82.2939 30.1688 83.4651 30.7063 84.0226Z" fill="#DEB180"/>
<path opacity="0.33" d="M16.8882 68.5311C17.3128 69.3738 18.5884 68.8839 19.4076 68.4876C20.0922 68.1577 21.0269 67.5884 20.7665 66.927C20.5061 66.2655 19.4499 66.73 18.7396 66.9013C18.0292 67.0727 16.5452 67.8271 16.8882 68.5311Z" fill="#DEB180"/>
</g>
</g>
</g>
<defs>
<filter id="filter0_dd_530_90" x="0" y="-9.08643" width="180.419" height="192.907" filterUnits="userSpaceOnUse" color-interpolation-filters="sRGB">
<feFlood flood-opacity="0" result="BackgroundImageFix"/>
<feColorMatrix in="SourceAlpha" type="matrix" values="0 0 0 0 0 0 0 0 0 0 0 0 0 0 0 0 0 0 127 0" result="hardAlpha"/>
<feOffset dy="4"/>
<feGaussianBlur stdDeviation="2"/>
<feComposite in2="hardAlpha" operator="out"/>
<feColorMatrix type="matrix" values="0 0 0 0 0 0 0 0 0 0 0 0 0 0 0 0 0 0 0.25 0"/>
<feBlend mode="normal" in2="BackgroundImageFix" result="effect1_dropShadow_530_90"/>
<feColorMatrix in="SourceAlpha" type="matrix" values="0 0 0 0 0 0 0 0 0 0 0 0 0 0 0 0 0 0 127 0" result="hardAlpha"/>
<feOffset dy="4"/>
<feGaussianBlur stdDeviation="2"/>
<feComposite in2="hardAlpha" operator="out"/>
<feColorMatrix type="matrix" values="0 0 0 0 0 0 0 0 0 0 0 0 0 0 0 0 0 0 0.25 0"/>
<feBlend mode="normal" in2="effect1_dropShadow_530_90" result="effect2_dropShadow_530_90"/>
<feBlend mode="normal" in="SourceGraphic" in2="effect2_dropShadow_530_90" result="shape"/>
</filter>
<clipPath id="clip0_530_90">
<rect width="54.1412" height="96.4698" fill="white" transform="translate(110.624 98.3906) rotate(-136.998)"/>
</clipPath>
<clipPath id="clip1_530_90">
<rect width="75.2458" height="104.652" fill="white" transform="translate(52.9941 175.821) rotate(-91.877)"/>
</clipPath>
<clipPath id="clip2_530_90">
<rect width="71.475" height="99.6053" fill="white" transform="translate(74.835 100.029) rotate(-172.328)"/>
</clipPath>
</defs>
</svg>
